<svg width="55" height="57" viewBox="0 0 55 57" fill="none" xmlns="http://www.w3.org/2000/svg">
<path d="M33.9965 49.8104V51.4758C33.9965 52.8011 33.023 53.9036 31.7564 54.0912L31.3459 55.6042C31.1231 56.4252 30.3842 56.9999 29.528 56.9999H25.4583C24.6021 56.9999 23.8632 56.4252 23.6404 55.6042L23.2416 54.0912C21.9632 53.8918 20.9897 52.8011 20.9897 51.4641V49.7986C20.9897 48.9073 21.7052 48.1919 22.5965 48.1919H32.3897C33.2811 48.2036 33.9965 48.919 33.9965 49.8104ZM41.5378 27.3623C41.5378 31.1505 40.0366 34.5869 37.5971 37.1085C35.744 39.032 34.5477 41.4832 34.149 44.0987C33.973 45.2246 32.9996 46.0573 31.8502 46.0573H23.136C21.9984 46.0573 21.0132 45.2363 20.849 44.1104C20.4385 41.495 19.2305 39.0085 17.3774 37.0968C14.9848 34.6104 13.4953 31.2326 13.4601 27.5147C13.378 19.7037 19.5941 13.3821 27.4052 13.3234C35.2045 13.2648 41.5378 19.5746 41.5378 27.3623ZM29.0823 18.8592C29.0823 17.9913 28.3786 17.2759 27.499 17.2759C21.9163 17.2759 17.3657 21.8148 17.3657 27.4092C17.3657 28.2771 18.0694 28.9925 18.949 28.9925C19.8169 28.9925 20.5323 28.2888 20.5323 27.4092C20.5323 23.5623 23.6638 20.4425 27.499 20.4425C28.3786 20.4425 29.0823 19.7388 29.0823 18.8592ZM27.499 8.71418C28.3669 8.71418 29.0823 8.01047 29.0823 7.13085V1.58333C29.0823 0.71543 28.3786 0 27.499 0C26.6194 0 25.9157 0.703702 25.9157 1.58333V7.13085C25.9157 8.01047 26.6311 8.71418 27.499 8.71418ZM8.86261 27.3505C8.86261 26.4826 8.15891 25.7672 7.27928 25.7672H1.73177C0.863868 25.7672 0.148438 26.4709 0.148438 27.3505C0.148438 28.2184 0.852139 28.9339 1.73177 28.9339H7.27928C8.15891 28.9339 8.86261 28.2302 8.86261 27.3505ZM53.2662 25.7672H47.7187C46.8508 25.7672 46.1354 26.4709 46.1354 27.3505C46.1354 28.2184 46.8391 28.9339 47.7187 28.9339H53.2662C54.1341 28.9339 54.8495 28.2302 54.8495 27.3505C54.8495 26.4826 54.1458 25.7672 53.2662 25.7672ZM12.0879 40.5332L8.15891 44.4622C7.53731 45.0838 7.53731 46.0807 8.15891 46.7024C8.46385 47.0073 8.87434 47.1598 9.27311 47.1598C9.67187 47.1598 10.0824 47.0073 10.3873 46.7024L14.3163 42.7733C14.9379 42.1517 14.9379 41.1548 14.3163 40.5332C13.7064 39.9116 12.6978 39.9116 12.0879 40.5332ZM41.7959 14.637C42.1946 14.637 42.6051 14.4845 42.9101 14.1796L46.8391 10.2506C47.4607 9.62899 47.4607 8.63208 46.8391 8.01047C46.2175 7.38887 45.2205 7.38887 44.5989 8.01047L40.6699 11.9395C40.0483 12.5611 40.0483 13.558 40.6699 14.1796C40.9866 14.4845 41.3854 14.637 41.7959 14.637ZM12.0879 14.1679C12.3929 14.4728 12.8033 14.6253 13.2021 14.6253C13.6009 14.6253 14.0114 14.4728 14.3163 14.1679C14.9379 13.5463 14.9379 12.5493 14.3163 11.9277L10.3873 7.99874C9.7657 7.37714 8.76879 7.37714 8.14718 7.99874C7.52558 8.62035 7.52558 9.61726 8.14718 10.2389L12.0879 14.1679ZM42.9101 40.5332C42.2885 39.9116 41.2915 39.9116 40.6699 40.5332C40.0483 41.1548 40.0483 42.1517 40.6699 42.7733L44.5989 46.7024C44.9039 47.0073 45.3144 47.1598 45.7131 47.1598C46.1119 47.1598 46.5224 47.0073 46.8273 46.7024C47.4489 46.0807 47.4489 45.0838 46.8273 44.4622L42.9101 40.5332Z" fill="white"/>
</svg>
